# xmcd CD database file
#
# Track frame offsets:
#	150
#	25577
#	42399
#	61561
#	84782
#	113348
#	132718
#	146320
#	170694
#	188982
#	215316
#	244057
#	275310
#	295837
#	308534
#
# Disc length: 4501 seconds
#
# Revision: 0
# Processed by: cddbd v1.5.2PL0 Copyright (c) Steve Scherf et al.
# Submitted via: CDex 1.70beta2
#
DISCID=c411930f
DTITLE=DC Jazz Lab - Live in Concert
DYEAR=2002
DGENRE=Jazz
TTITLE0=01-A_Child_is_Born
TTITLE1=02-Cute
TTITLE2=03-Autumn_Leaves
TTITLE3=04-Mercy,_Mercy,_Mercy
TTITLE4=05-Summertime
TTITLE5=06-Satin_Doll
TTITLE6=07-The_Preacher
TTITLE7=08-Days_of_Wine_and_Roses
TTITLE8=09-Angel_Eyes
TTITLE9=10-Red_Clay
TTITLE10=11-God_Bless_the_Child
TTITLE11=12-Meditation
TTITLE12=13-Take_Five
TTITLE13=14-The_Bare_Necessities
TTITLE14=15-Watermelon_Men
EXTD=YEAR: 2002
EXTT0=
EXTT1=
EXTT2=
EXTT3=
EXTT4=
EXTT5=
EXTT6=
EXTT7=
EXTT8=
EXTT9=
EXTT10=
EXTT11=
EXTT12=
EXTT13=
EXTT14=
PLAYORDER=
